<svg xmlns="http://www.w3.org/2000/svg" viewBox="0 0 322.14 22.5"><title>Asset 1</title><g id="Layer_2" data-name="Layer 2"><g id="Layer_1-2" data-name="Layer 1">
<style>.cls-fill{fill:#444;}</style><path class="cls-fill" d="M.2,22.17H15.86A6.33,6.33,0,0,0,17.15,22a6.41,6.41,0,0,0,1.34-.45,6.72,6.72,0,0,0,1.29-.78,4.77,4.77,0,0,0,1-1.1,5.91,5.91,0,0,0,.73-1.54,6.66,6.66,0,0,0,.28-2,6.75,6.75,0,0,0-.27-2,5.62,5.62,0,0,0-.72-1.52,5.27,5.27,0,0,0-1-1.12,6.52,6.52,0,0,0-1.27-.8,6.43,6.43,0,0,0-1.34-.47,6.76,6.76,0,0,0-1.29-.17H5.93A3.49,3.49,0,0,1,3.29,9a3.7,3.7,0,0,1-1-2.66,3.78,3.78,0,0,1,1-2.65A3.45,3.45,0,0,1,5.93,2.66h13.7V.34H5.93A6.76,6.76,0,0,0,4,.67,5.63,5.63,0,0,0,.58,3.56,6.16,6.16,0,0,0,0,6.39,6.2,6.2,0,0,0,.58,9.22,5.6,5.6,0,0,0,2,11.07,5.81,5.81,0,0,0,4,12.1a6.75,6.75,0,0,0,2,.33h9.94a3.87,3.87,0,0,1,1.46.27,3.3,3.3,0,0,1,1.19.81,3.53,3.53,0,0,1,.73,1.2,4.19,4.19,0,0,1,.24,1.44,3.72,3.72,0,0,1-1,2.65,3.5,3.5,0,0,1-2.66,1H.2Z"/><path class="cls-fill" d="M35.62,0A9.43,9.43,0,0,0,32,.68,8.59,8.59,0,0,0,29.2,2.54a8.53,8.53,0,0,0-1.87,2.83A9.45,9.45,0,0,0,26.65,9v4.55a9.42,9.42,0,0,0,.68,3.62A8.64,8.64,0,0,0,29.2,20,8.42,8.42,0,0,0,32,21.84a9.56,9.56,0,0,0,3.6.67h5.85a9.46,9.46,0,0,0,3.59-.67A8.42,8.42,0,0,0,47.87,20a8.53,8.53,0,0,0,1.86-2.83,9.52,9.52,0,0,0,.67-3.62V9a9.54,9.54,0,0,0-.67-3.62,8.42,8.42,0,0,0-1.86-2.83A8.61,8.61,0,0,0,45,.68,9.37,9.37,0,0,0,41.47,0Zm5.82,20.17H35.62A7.27,7.27,0,0,1,33,19.71a6.22,6.22,0,0,1-2.12-1.37,6.08,6.08,0,0,1-1.38-2.12A7.31,7.31,0,0,1,29,13.53V9a7.31,7.31,0,0,1,.48-2.68,6.07,6.07,0,0,1,1.38-2.12A6.24,6.24,0,0,1,33,2.81a7.28,7.28,0,0,1,2.67-.48h5.85a7.23,7.23,0,0,1,2.65.48A6,6,0,0,1,47.61,6.3,7.33,7.33,0,0,1,48.08,9v4.55a7.33,7.33,0,0,1-.48,2.68,6.08,6.08,0,0,1-1.38,2.12,6.22,6.22,0,0,1-2.12,1.37A7.27,7.27,0,0,1,41.43,20.18Z"/><path class="cls-fill" d="M56,22.17H71.62A6.33,6.33,0,0,0,72.91,22a6.41,6.41,0,0,0,1.34-.45,6.72,6.72,0,0,0,1.29-.78,4.77,4.77,0,0,0,1-1.1,5.91,5.91,0,0,0,.73-1.54,6.66,6.66,0,0,0,.28-2,6.75,6.75,0,0,0-.27-2,5.62,5.62,0,0,0-.72-1.52,5.27,5.27,0,0,0-1-1.12,6.52,6.52,0,0,0-1.27-.8,6.43,6.43,0,0,0-1.34-.47,6.76,6.76,0,0,0-1.29-.17H61.69A3.49,3.49,0,0,1,59,9a3.7,3.7,0,0,1-1-2.66,3.78,3.78,0,0,1,1-2.65,3.45,3.45,0,0,1,2.65-1.07h13.7V.34H61.69a6.76,6.76,0,0,0-2,.33,5.63,5.63,0,0,0-3.38,2.89,6.16,6.16,0,0,0-.58,2.82,6.2,6.2,0,0,0,.58,2.83,5.6,5.6,0,0,0,1.46,1.85,5.81,5.81,0,0,0,1.92,1,6.75,6.75,0,0,0,2,.33h9.94a3.87,3.87,0,0,1,1.46.27,3.3,3.3,0,0,1,1.19.81,3.53,3.53,0,0,1,.73,1.2,4.19,4.19,0,0,1,.24,1.44,3.72,3.72,0,0,1-1,2.65,3.5,3.5,0,0,1-2.66,1H56Z"/><path class="cls-fill" d="M102.21,22.17h2.32V1.52a1.19,1.19,0,0,0-.09-.46,1.14,1.14,0,0,0-.62-.62,1.17,1.17,0,0,0-.46-.09H93.62a11.62,11.62,0,0,0-4.38.81A10.42,10.42,0,0,0,85.8,3.39a10.27,10.27,0,0,0-2.27,3.44,11.64,11.64,0,0,0-.82,4.42V22.17H85V16.32h17.19Zm0-8.17H85V11.26a9.35,9.35,0,0,1,.58-3.45,7.83,7.83,0,0,1,1.48-2.43,7.25,7.25,0,0,1,2-1.54A10.31,10.31,0,0,1,91,3a9.41,9.41,0,0,1,1.66-.32c.47,0,.78-.06.93-.06h8.59Z"/><path class="cls-fill" d="M113.87,3.9l17.51,18.28a.9.9,0,0,0,.34.23,1.24,1.24,0,0,0,.93,0,1.1,1.1,0,0,0,.36-.24,1.23,1.23,0,0,0,.26-.38,1.14,1.14,0,0,0,.09-.46V.34H131V18.61L113.54.35A1.05,1.05,0,0,0,113,0a1.21,1.21,0,0,0-.7.07,1.31,1.31,0,0,0-.51.45,1.06,1.06,0,0,0-.2.64v21h2.32Z"/><path class="cls-fill" d="M159.9,22.17h2.32V.34H159.9v9.74H142.73V.34h-2.32V22.17h2.32V12.43H159.9Z"/><path class="cls-fill" d="M174,.34a5.54,5.54,0,0,0-1.69.23A4.76,4.76,0,0,0,171,1.2a4.47,4.47,0,0,0-.94.89,5.15,5.15,0,0,0-.65,1.08,5.71,5.71,0,0,0-.37,1.16A5.56,5.56,0,0,0,169,5.41V17.1a5.61,5.61,0,0,0,.24,1.7,4.72,4.72,0,0,0,.62,1.29,4.28,4.28,0,0,0,.88.93,5.39,5.39,0,0,0,1.08.65,5.65,5.65,0,0,0,1.16.37,5.46,5.46,0,0,0,1.09.12H189.6a1.23,1.23,0,0,0,.48-.09,1.07,1.07,0,0,0,.36-.24,1.15,1.15,0,0,0,.24-.37,1.24,1.24,0,0,0,.09-.48V11.26a1.16,1.16,0,0,0-.09-.45,1.25,1.25,0,0,0-.25-.38,1.15,1.15,0,0,0-.84-.34H177v2.35h11.5v7.42H174a2.58,2.58,0,0,1-2.74-2.74V5.44a2.77,2.77,0,0,1,.74-2,2.72,2.72,0,0,1,2-.74h16.56V.34Z"/><path class="cls-fill" d="M197.32,22.17h2.32V.34h-2.32Z"/><path class="cls-fill" d="M225.75,22.17h2.32V1.52a1.18,1.18,0,0,0-.09-.46,1.14,1.14,0,0,0-.25-.37,1.15,1.15,0,0,0-.37-.25,1.17,1.17,0,0,0-.46-.09h-9.74a11.62,11.62,0,0,0-4.38.81,10.43,10.43,0,0,0-3.44,2.24,10.28,10.28,0,0,0-2.27,3.44,11.63,11.63,0,0,0-.82,4.42V22.17h2.32V16.32h17.19Zm0-8.17H208.56V11.26a9.35,9.35,0,0,1,.58-3.45,7.81,7.81,0,0,1,1.48-2.43,7.23,7.23,0,0,1,2-1.54,10.3,10.3,0,0,1,2-.79,9.45,9.45,0,0,1,1.66-.32c.47,0,.78-.06.93-.06h8.59Z"/><path class="cls-fill" d="M235.06,19.85a1,1,0,0,0-.43.09,1.24,1.24,0,0,0-.38.26,1.14,1.14,0,0,0-.24.37,1.1,1.1,0,0,0-.09.43,1.13,1.13,0,0,0,.33.81,1.12,1.12,0,0,0,.36.24,1.15,1.15,0,0,0,.88,0,1.12,1.12,0,0,0,.36-.24,1.24,1.24,0,0,0,.26-.38,1,1,0,0,0,.09-.43,1,1,0,0,0-.09-.42,1.28,1.28,0,0,0-.26-.38,1.26,1.26,0,0,0-.38-.26A1,1,0,0,0,235.06,19.85Z"/><path class="cls-fill" d="M246.81.34a5.55,5.55,0,0,0-1.69.23,4.78,4.78,0,0,0-1.29.62,4.45,4.45,0,0,0-.94.89,5.14,5.14,0,0,0-.65,1.08,5.68,5.68,0,0,0-.37,1.16,5.53,5.53,0,0,0-.12,1.09V17.1a5.61,5.61,0,0,0,.24,1.7,4.72,4.72,0,0,0,.62,1.29,4.25,4.25,0,0,0,.88.93,5.29,5.29,0,0,0,1.09.65,5.62,5.62,0,0,0,1.15.37,5.48,5.48,0,0,0,1.09.12h14.58V19.85H246.81a2.58,2.58,0,0,1-2.75-2.74V5.44a2.77,2.77,0,0,1,.74-2,2.72,2.72,0,0,1,2-.74h14.58V.34Z"/><path class="cls-fill" d="M275.35,0a9.44,9.44,0,0,0-3.59.67,8.6,8.6,0,0,0-2.83,1.85,8.52,8.52,0,0,0-1.87,2.83A9.43,9.43,0,0,0,266.38,9v4.55a9.4,9.4,0,0,0,.68,3.62A8.64,8.64,0,0,0,268.93,20a8.43,8.43,0,0,0,2.82,1.85,9.57,9.57,0,0,0,3.6.67h5.85a9.46,9.46,0,0,0,3.59-.67A8.43,8.43,0,0,0,287.61,20a8.55,8.55,0,0,0,1.86-2.83,9.53,9.53,0,0,0,.67-3.62V9a9.56,9.56,0,0,0-.67-3.62,8.45,8.45,0,0,0-1.86-2.83A8.6,8.6,0,0,0,284.78.68,9.37,9.37,0,0,0,281.2,0Zm5.81,20.17h-5.81a7.27,7.27,0,0,1-2.67-.48,6.23,6.23,0,0,1-2.12-1.37,6.07,6.07,0,0,1-1.38-2.12,7.32,7.32,0,0,1-.48-2.68V9a7.32,7.32,0,0,1,.48-2.68,6.07,6.07,0,0,1,1.38-2.12,6.24,6.24,0,0,1,2.12-1.37,7.28,7.28,0,0,1,2.67-.48h5.85a7.23,7.23,0,0,1,2.65.48,6,6,0,0,1,3.49,3.49A7.32,7.32,0,0,1,287.82,9v4.55a7.32,7.32,0,0,1-.48,2.68A6.07,6.07,0,0,1,286,18.34a6.24,6.24,0,0,1-2.12,1.37A7.27,7.27,0,0,1,281.17,20.18Z"/><path class="cls-fill" d="M298.73,5.21,308.29,22a.93.93,0,0,0,.38.4,1.29,1.29,0,0,0,1.2,0,.88.88,0,0,0,.38-.38L319.78,5.2v17h2.35v-21a1.11,1.11,0,0,0-.24-.72,1.16,1.16,0,0,0-.63-.43,1.2,1.2,0,0,0-.76.05,1.12,1.12,0,0,0-.57.49L309.25,19.16,298.54.56a1,1,0,0,0-.23-.27A1.06,1.06,0,0,0,298,.1a1.32,1.32,0,0,0-.38-.09,1.28,1.28,0,0,0-.4,0,1.1,1.1,0,0,0-.58.41,1.14,1.14,0,0,0-.24.73v21h2.32Z"/></g></g></svg>